<svg xmlns="http://www.w3.org/2000/svg" width="90" height="40" viewBox="0 0 90 40">
    <g fill="none">
        <path fill="#A50034" d="M19.653 39.274c10.844 0 19.652-8.782 19.652-19.633C39.305 8.79 30.497 0 19.653 0 8.79 0 0 8.79 0 19.641c0 10.851 8.791 19.633 19.653 19.633"/>
        <path fill="#FFF" d="M18.862 11.022L18.862 28.252 24.34 28.252 24.34 26.703 20.441 26.703 20.441 11.022zM13.377 15.723c1.303 0 2.354-1.06 2.354-2.354 0-1.295-1.05-2.358-2.354-2.358-1.303 0-2.354 1.063-2.354 2.358 0 1.295 1.05 2.354 2.354 2.354"/>
        <path fill="#FFF" d="M20.44 3.205c-.205-.01-.596-.022-.782-.022-9.072 0-16.454 7.385-16.454 16.45 0 4.404 1.71 8.53 4.81 11.635 3.112 3.096 7.241 4.807 11.644 4.807 4.385 0 8.514-1.71 11.62-4.807 3.107-3.104 4.826-7.231 4.826-11.635v-.731H24.355v1.514h10.182c0 .033 0 .193-.008.235-.517 7.75-6.99 13.889-14.871 13.889-3.99 0-7.73-1.552-10.546-4.37-2.825-2.805-4.381-6.543-4.381-10.537 0-3.972 1.556-7.73 4.38-10.544 2.816-2.811 6.557-4.363 10.547-4.363.171 0 .59 0 .782.01v-1.53z"/>
        <path fill="#c3c3c3" d="M54.085 6.611h-5.906v25.565h18.139V27.2H54.085V6.61zm25.224 15.823h4.81v4.47c-.887.338-2.617.674-4.262.674-5.315 0-7.086-2.7-7.086-8.182 0-5.229 1.686-8.312 7.002-8.312 2.953 0 4.64.929 6.03 2.7l3.672-3.375c-2.236-3.203-6.16-4.174-9.829-4.174-8.27 0-12.613 4.514-12.613 13.118 0 8.563 3.923 13.203 12.572 13.203 3.964 0 7.846-1.012 9.954-2.488V17.666h-10.25v4.768z"/>
    </g>
</svg>
